<?xml version="1.0" encoding="UTF-8" standalone="no"?> <svg xmlns:inkscape="http://www.inkscape.org/namespaces/inkscape" xmlns:sodipodi="http://sodipodi.sourceforge.net/DTD/sodipodi-0.dtd" xmlns="http://www.w3.org/2000/svg" xmlns:svg="http://www.w3.org/2000/svg" fill="#000000" version="1.1" id="Layer_1" viewBox="0 0 64 64" xml:space="preserve" width="64" height="64"><defs id="defs1"><linearGradient id="swatch9"><stop style="stop-color:#000000;stop-opacity:1;" offset="0" id="stop9"></stop></linearGradient><linearGradient id="swatch8"><stop style="stop-color:#000000;stop-opacity:1;" offset="0" id="stop8"></stop></linearGradient></defs> <g id="layer1" style="display:inline"><rect style="fill:#9266f2;fill-opacity:1;fill-rule:nonzero;stroke:#9266f2;stroke-width:0.913741;stroke-opacity:1" id="rect9" width="65.086258" height="65.086258" x="-0.54312897" y="-0.54312897" rx="2.9813931"></rect><g id="g9-3" transform="matrix(2,0,0,2,0.02115669,0.10027746)"><rect id="_Transparent_Rectangle-7" style="fill:none" width="32" height="32" x="0" y="0"></rect><path id="intelligence_1_-7" d="m 29.36,16.5 c 0,-1.433 -0.797,-2.74 -2.052,-3.406 0.034,-0.205 0.052,-0.401 0.052,-0.594 0,-1.433 -0.797,-2.74 -2.052,-3.406 C 25.343,8.889 25.36,8.692 25.36,8.5 25.36,6.994 24.496,5.433 23.322,4.77 23.08,2.999 21.441,1.64 19.5,1.64 17.946,1.64 16.611,2.568 16,3.896 15.389,2.569 14.054,1.64 12.5,1.64 10.511,1.64 8.868,3.148 8.672,5.112 7.431,5.783 6.64,7.09 6.64,8.5 6.64,8.692 6.657,8.888 6.691,9.094 5.436,9.76 4.64,11.067 4.64,12.5 c 0,0.192 0.017,0.388 0.051,0.594 C 3.436,13.76 2.64,15.067 2.64,16.5 c 0,0.875 0.303,1.722 0.858,2.41 -0.237,0.514 -0.358,1.047 -0.358,1.59 0,1.61 1.022,3.05 2.523,3.605 -0.016,0.137 -0.023,0.268 -0.023,0.395 0,1.832 1.312,3.406 3.093,3.767 0.36,1.781 1.935,3.094 3.767,3.094 1.555,0 2.889,-0.929 3.5,-2.256 0.176,0.382 0.412,0.73 0.697,1.033 0.018,0.04 0.016,0.085 0.049,0.118 0.033,0.033 0.078,0.031 0.118,0.049 0.691,0.65 1.615,1.056 2.636,1.056 1.832,0 3.406,-1.312 3.767,-3.094 1.781,-0.36 3.094,-1.935 3.094,-3.767 0,-0.128 -0.008,-0.257 -0.023,-0.395 1.5,-0.556 2.523,-1.995 2.523,-3.605 0,-0.542 -0.121,-1.075 -0.359,-1.59 0.555,-0.687 0.858,-1.534 0.858,-2.41 z m -16,14.005 v -1.801 c 0,-1.184 -0.919,-2.05 -2.029,-2.98 -0.153,-0.126 -0.38,-0.107 -0.507,0.045 -0.128,0.152 -0.108,0.38 0.045,0.508 1.149,0.963 1.772,1.635 1.772,2.428 v 1.921 c -0.047,0.002 -0.092,0.014 -0.14,0.014 -1.562,0 -2.894,-1.175 -3.097,-2.732 L 9.368,27.634 9.094,27.598 C 7.535,27.394 6.36,26.062 6.36,24.5 c 0,-0.136 0.022,-0.266 0.041,-0.398 L 8.146,23.329 C 8.328,23.249 8.41,23.036 8.329,22.854 8.248,22.671 8.035,22.586 7.854,22.67 l -1.803,0.8 C 4.757,23.056 3.86,21.856 3.86,20.5 c 0,-0.387 0.101,-0.766 0.253,-1.14 H 7 C 7.199,19.36 7.36,19.199 7.36,19 7.36,18.801 7.199,18.64 7,18.64 H 4.217 L 4.193,18.614 C 3.656,18.027 3.36,17.277 3.36,16.5 3.36,15.255 4.1,14.127 5.244,13.625 L 5.518,13.505 5.45,13.214 C 5.389,12.957 5.36,12.723 5.36,12.5 c 0,-1.153 0.639,-2.199 1.642,-2.746 l 1.721,2.186 c 0.313,0.38 0.596,0.688 0.901,0.929 l -1.878,1.878 c -0.141,0.141 -0.141,0.368 0,0.509 0.07,0.069 0.162,0.104 0.254,0.104 0.092,0 0.184,-0.035 0.254,-0.105 l 2,-2 c 0.005,-0.005 0.003,-0.014 0.008,-0.019 0.22,0.077 0.459,0.125 0.738,0.125 h 2 c 0.199,0 0.36,-0.161 0.36,-0.36 0,-0.199 -0.161,-0.36 -0.36,-0.36 h -2 c -0.656,0 -1.005,-0.29 -1.717,-1.152 L 7.442,9.149 C 7.392,8.919 7.36,8.702 7.36,8.5 7.36,7.371 7.99,6.329 8.975,5.776 L 9.769,6.44 C 9.836,6.497 9.918,6.524 10,6.524 c 0.103,0 0.205,-0.044 0.276,-0.129 0.127,-0.152 0.107,-0.379 -0.045,-0.507 L 9.4,5.193 C 9.558,3.594 10.882,2.36 12.5,2.36 c 1.731,0 3.14,1.409 3.14,3.14 V 9.669 C 15.078,8.998 14.199,8.64 13,8.64 c -0.199,0 -0.36,0.161 -0.36,0.36 0,0.199 0.161,0.36 0.36,0.36 1.826,0 2.64,0.814 2.64,2.64 v 4.659 c -0.749,0.076 -1.166,0.358 -1.52,0.623 -0.455,0.343 -0.814,0.612 -2.049,0.365 -0.196,-0.042 -0.385,0.087 -0.424,0.282 -0.039,0.194 0.087,0.385 0.282,0.423 0.375,0.075 0.691,0.107 0.964,0.107 0.857,0 1.277,-0.315 1.659,-0.602 0.3,-0.225 0.58,-0.417 1.088,-0.482 v 5.253 l -2.14,0.01 c -1.044,0 -1.771,-0.59 -2.159,-1.754 -0.062,-0.188 -0.268,-0.291 -0.455,-0.228 -0.188,0.063 -0.291,0.267 -0.228,0.456 0.651,1.954 2.06,2.246 2.843,2.246 l 2.139,-0.01 v 4.15 c 0,1.433 -0.968,2.63 -2.28,3.007 z M 26.121,23.406 C 25.502,22.124 24.562,21.62 22.94,21.628 l -1.006,0.012 c -1.207,0 -1.574,-0.383 -1.574,-1.64 0,-0.199 -0.161,-0.36 -0.36,-0.36 -0.199,0 -0.36,0.161 -0.36,0.36 0,1.654 0.687,2.36 2.299,2.36 l 1.01,-0.012 c 0.024,-10e-4 0.049,-10e-4 0.073,-10e-4 1.415,0 2.072,0.416 2.563,1.607 0.031,0.178 0.055,0.358 0.055,0.545 0,1.416 -0.971,2.634 -2.313,3.002 -0.078,-1.062 -0.414,-1.876 -1.079,-2.501 -0.146,-0.136 -0.373,-0.13 -0.509,0.015 -0.137,0.146 -0.13,0.373 0.015,0.509 0.564,0.531 0.828,1.22 0.869,2.184 l -0.026,0.199 c -0.203,1.558 -1.535,2.732 -3.097,2.732 -0.736,0 -1.404,-0.265 -1.94,-0.69 l 1.695,-1.695 c 0.141,-0.141 0.141,-0.369 0,-0.51 -0.141,-0.141 -0.369,-0.141 -0.51,0 L 17.05,29.44 C 16.624,28.904 16.359,28.236 16.359,27.5 V 27 c 0,-1.58 0.504,-1.64 2.64,-1.64 0.199,0 0.36,-0.161 0.36,-0.36 0,-0.199 -0.161,-0.36 -0.36,-0.36 -1.115,0 -2.041,0.015 -2.64,0.456 v -7.758 c 1.462,-0.044 1.926,-0.348 2.329,-0.621 0.292,-0.2 0.524,-0.357 1.312,-0.357 0.199,0 0.36,-0.161 0.36,-0.36 0,-0.199 -0.161,-0.36 -0.36,-0.36 -1.01,0 -1.369,0.245 -1.717,0.481 -0.334,0.227 -0.689,0.459 -1.923,0.497 V 8.331 C 16.922,9.002 17.801,9.36 19,9.36 19.199,9.36 19.36,9.199 19.36,9 19.36,8.801 19.199,8.64 19,8.64 17.174,8.64 16.36,7.826 16.36,6 V 5.5 c 0,-1.731 1.409,-3.14 3.14,-3.14 1.495,0 2.756,0.976 3.055,2.28 H 20 c -0.199,0 -0.36,0.161 -0.36,0.36 0,0.199 0.161,0.36 0.36,0.36 h 2.888 c 0.986,0.503 1.751,1.864 1.751,3.14 0,0.191 -0.033,0.397 -0.077,0.611 -0.946,0.799 -1.729,1.563 -1.888,2.529 H 20 c -0.199,0 -0.36,0.161 -0.36,0.36 0,0.199 0.161,0.36 0.36,0.36 h 2.64 V 15 c 0,0.199 0.161,0.36 0.36,0.36 0.199,0 0.36,-0.161 0.36,-0.36 v -3 c 0,-0.749 0.56,-1.393 1.589,-2.272 1.031,0.54 1.69,1.601 1.69,2.772 0,0.224 -0.029,0.457 -0.09,0.713 l -0.068,0.292 0.274,0.12 c 1.145,0.501 1.884,1.63 1.884,2.875 0,0.777 -0.296,1.528 -0.833,2.113 l -0.024,0.026 H 25 c -0.199,0 -0.36,0.161 -0.36,0.36 0,0.199 0.161,0.36 0.36,0.36 h 2.887 c 0.152,0.373 0.252,0.754 0.252,1.14 0.001,1.296 -0.819,2.445 -2.018,2.907 z"></path><path style="fill:#808080;stroke:#000000;stroke-width:0.0384615" d="M 12.103572,30.593367 C 11.246351,30.482075 10.437672,29.979456 9.9423942,29.250127 9.6548819,28.826747 9.5128646,28.456413 9.4266819,27.90532 l -0.04488,-0.286988 -0.315235,-0.04892 C 8.0335562,27.409114 7.203715,26.816757 6.733251,25.903846 6.640588,25.724038 6.5372964,25.481731 6.5037142,25.365385 6.4146295,25.056749 6.3606761,24.569808 6.388652,24.326923 l 0.024365,-0.211538 0.882082,-0.384616 c 0.4851454,-0.211538 0.9244281,-0.425917 0.9761839,-0.476398 0.1350707,-0.131744 0.1315834,-0.379476 -0.0073,-0.518357 -0.1697997,-0.169799 -0.2858193,-0.142587 -1.296254,0.304034 -0.6518277,0.288114 -0.940911,0.397967 -1,0.380005 -0.1726357,-0.05248 -0.6288809,-0.297476 -0.813886,-0.437048 -0.7138078,-0.538512 -1.1531271,-1.30093 -1.251866,-2.172553 -0.045344,-0.40028 -0.00442,-0.758969 0.1331391,-1.166787 l 0.087376,-0.25905 1.5204832,-0.01005 1.5204831,-0.01005 0.1009616,-0.100961 c 0.1418793,-0.141881 0.1416778,-0.385429 -4.337e-4,-0.52754 L 7.1625873,18.634615 H 5.6946031 4.2266187 L 4.0280316,18.373399 C 3.793434,18.064815 3.5545682,17.568211 3.4599288,17.192308 c -0.088336,-0.350865 -0.08984,-1.018936 -0.00311,-1.379859 0.2335667,-0.971943 0.9037443,-1.76895 1.841255,-2.189708 0.1261853,-0.05663 0.2211539,-0.123918 0.2211539,-0.156688 0,-0.03159 -0.028614,-0.175335 -0.063587,-0.319436 -0.083173,-0.342702 -0.082179,-0.984317 0.00207,-1.336702 0.1783961,-0.746158 0.6773755,-1.465211 1.3056655,-1.8815273 0.1232904,-0.081694 0.2380462,-0.1336173 0.2550128,-0.1153846 0.016967,0.018233 0.3977004,0.5004589 0.8460754,1.0716119 0.9121273,1.161897 1.3496488,1.677382 1.5825388,1.864537 l 0.1574946,0.126566 -0.9849431,0.98549 c -0.967733,0.96827 -0.9849434,0.98825 -0.9849434,1.143435 0,0.226559 0.1403477,0.360742 0.3773146,0.360742 h 0.1745177 l 1.0498273,-1.04534 1.0498281,-1.045339 0.196421,0.04534 c 0.129186,0.02982 0.621497,0.04534 1.438243,0.04534 h 1.24182 l 0.101399,-0.101399 c 0.140792,-0.140792 0.14227,-0.385702 0.0032,-0.524804 l -0.09823,-0.09823 -1.257538,-0.01295 C 10.69794,12.615503 10.647198,12.611983 10.463321,12.527366 9.9946927,12.311732 9.7560454,12.056728 8.3536546,10.273135 L 7.4494869,9.1231931 7.4049738,8.8187662 C 7.3118154,8.1816531 7.5234292,7.3508042 7.9295988,6.7589573 8.1571169,6.4274304 8.8195873,5.8269231 8.9578042,5.8269231 c 0.025023,0 0.2286616,0.1533534 0.4525308,0.3407854 0.2238692,0.1874319 0.4523077,0.3521484 0.5076415,0.3660361 0.1257835,0.03157 0.3500205,-0.058255 0.4058505,-0.1625754 0.0647,-0.1208923 0.04903,-0.3320627 -0.03231,-0.435472 C 10.25089,5.8840481 10.041177,5.6961048 9.8254873,5.5180455 L 9.433325,5.1943011 9.453885,4.995092 c 0.055723,-0.5398974 0.4294369,-1.2677713 0.879002,-1.7120098 1.704,-1.6838094 4.542958,-0.8900113 5.194303,1.4523734 0.08152,0.293154 0.08471,0.377334 0.09833,2.5890459 L 15.63959,9.6105412 15.473639,9.4577908 C 14.911774,8.9406165 14.244455,8.6884958 13.326923,8.646735 L 12.846154,8.624853 12.740385,8.7311326 c -0.143732,0.1444261 -0.148603,0.3886215 -0.01051,0.5267185 0.08629,0.086288 0.143656,0.09933 0.608846,0.1384219 1.209986,0.1016788 1.834338,0.5249815 2.123316,1.43958 0.147856,0.467957 0.172508,0.962516 0.172542,3.461491 l 3.2e-5,2.335806 -0.105769,0.02006 c -0.62328,0.118242 -0.911124,0.243493 -1.451923,0.631782 -0.522482,0.375139 -0.753579,0.446129 -1.341191,0.411998 -0.235422,-0.01368 -0.532072,-0.03509 -0.659222,-0.04758 -0.215353,-0.02116 -0.238397,-0.0155 -0.336539,0.08264 -0.143666,0.143666 -0.148044,0.387842 -0.0094,0.526448 0.130333,0.130333 0.555501,0.203417 1.173313,0.201687 0.711536,-0.002 0.974323,-0.09504 1.669675,-0.591167 0.372749,-0.265955 0.636189,-0.394027 0.92003,-0.447276 l 0.141064,-0.02646 v 2.595267 2.595266 l -1.067307,0.0268 c -1.450869,0.03643 -1.79251,-0.01965 -2.292291,-0.376287 -0.351102,-0.250541 -0.638281,-0.646993 -0.835098,-1.152856 -0.139734,-0.359147 -0.227419,-0.44886 -0.438711,-0.44886 -0.125692,0 -0.187383,0.02359 -0.265194,0.101399 -0.142742,0.142743 -0.1341,0.340775 0.03142,0.719915 0.44352,1.01593 1.098894,1.609499 2.021198,1.830589 0.294226,0.07053 0.45239,0.07835 1.588817,0.0786 l 1.262064,2.7e-4 -0.01413,2.298077 c -0.01379,2.242105 -0.01623,2.305438 -0.10023,2.600345 -0.212196,0.744957 -0.661625,1.377247 -1.275025,1.793799 -0.223042,0.151465 -0.597082,0.339691 -0.798204,0.401676 l -0.08654,0.02667 V 29.43375 c 0,-0.825118 -0.01284,-1.101677 -0.0595,-1.281438 -0.166557,-0.641635 -0.588702,-1.230183 -1.409208,-1.96469 -0.564738,-0.505548 -0.634229,-0.553007 -0.809739,-0.553007 -0.258676,0 -0.435311,0.262494 -0.336751,0.500439 0.02605,0.06288 0.188103,0.233838 0.360126,0.379903 0.440071,0.373666 1.031875,0.992946 1.199897,1.255608 0.288453,0.450923 0.302074,0.525117 0.316782,1.72546 0.01052,0.85859 0.003,1.079388 -0.03769,1.10518 -0.05877,0.03726 -0.14964,0.0358 -0.485725,-0.0078 z" id="path1-5"></path><path style="fill:#808080;stroke:#000000;stroke-width:0.0384615" d="M 12.021281,30.537383 C 11.239304,30.395878 10.535395,29.967139 10.071199,29.349622 9.7470896,28.918461 9.5659542,28.482775 9.4682804,27.899418 9.4402565,27.732045 9.3994781,27.611428 9.3648538,27.593498 9.333415,27.577218 9.1528823,27.535639 8.96367,27.5011 8.1794112,27.357942 7.4726185,26.919884 7.0381437,26.307692 6.8326335,26.01812 6.6206074,25.597214 6.5429371,25.324626 6.4602381,25.03439 6.4011513,24.511167 6.4285228,24.31147 l 0.022846,-0.166683 0.6012384,-0.260845 c 0.8878597,-0.385193 1.255032,-0.580256 1.307024,-0.694366 0.089551,-0.196544 0.014881,-0.46774 -0.1536162,-0.557917 -0.1382923,-0.07401 -0.3629577,-0.0082 -1.2252458,0.359131 -0.5688088,0.242283 -0.8750675,0.352716 -0.9811639,0.353795 -0.1136964,0.0012 -0.2319741,-0.04291 -0.4499572,-0.167627 C 4.9318514,22.823482 4.5463685,22.417195 4.2504968,21.807692 3.8900992,21.065265 3.8397742,20.393727 4.0855173,19.6062 l 0.062875,-0.201493 1.5396676,-0.01005 1.5396674,-0.01005 0.08806,-0.130687 c 0.1119781,-0.166185 0.1119785,-0.34167 8e-7,-0.507856 L 7.2277285,18.615385 5.738452,18.605317 4.2491754,18.59525 4.0708578,18.355317 C 3.84131,18.046452 3.5774233,17.492757 3.4973959,17.152061 3.4027872,16.74929 3.4386342,15.941297 3.5673103,15.576185 3.8644667,14.733022 4.4110541,14.114014 5.215614,13.709489 c 0.1637901,-0.08235 0.3094207,-0.168533 0.3236237,-0.191514 0.014203,-0.02298 -0.00395,-0.191828 -0.04034,-0.375217 -0.049943,-0.251687 -0.061496,-0.4515 -0.047122,-0.815018 0.01644,-0.415757 0.035378,-0.525645 0.1385445,-0.803904 0.1426639,-0.38479 0.3996759,-0.808951 0.6681859,-1.102744 0.1891011,-0.206907 0.6355772,-0.5557074 0.7113235,-0.5557074 0.020341,0 0.156187,0.1514424 0.3018791,0.3365384 0.9930612,1.261644 1.6493412,2.064151 1.9244689,2.353263 l 0.3187135,0.334913 -0.48227,0.478028 c -0.2652481,0.262915 -0.698917,0.709997 -0.9637085,0.993516 l -0.4814385,0.51549 0.019332,0.171511 c 0.026597,0.23597 0.125635,0.325438 0.3812934,0.344448 l 0.2042085,0.01519 1.0601796,-1.03699 1.0601794,-1.036989 0.324436,0.03551 c 0.178439,0.01953 0.834332,0.03085 1.457538,0.02516 l 1.133103,-0.01035 0.08805,-0.130687 c 0.11195,-0.16616 0.11197,-0.341644 5.7e-5,-0.507856 l -0.08799,-0.130687 -1.287006,-0.02261 -1.287006,-0.0226 -0.230769,-0.118164 c -0.126926,-0.065 -0.304884,-0.18213 -0.395466,-0.260301 C 9.7987223,11.994187 9.2091292,11.292132 8.2767723,10.106912 L 7.4834538,9.0984388 7.4459892,8.7992196 C 7.3710192,8.2004519 7.5462915,7.4591169 7.8941085,6.9038462 8.1506673,6.4942638 8.8901238,5.8144125 8.9913012,5.8950943 c 0.7275892,0.5801999 0.8544769,0.662598 1.0203568,0.662598 0.135229,0 0.189827,-0.022491 0.284557,-0.1172211 C 10.401196,6.33549 10.411376,6.304975 10.393709,6.14823 10.37114,5.9479952 10.254,5.811327 9.7721727,5.4230769 9.4517723,5.1649024 9.4432181,5.1410998 9.5388635,4.7738919 9.7717592,3.8797443 10.391128,3.1153023 11.196994,2.7273834 c 0.781888,-0.3763768 1.733588,-0.3912236 2.527921,-0.039436 0.709695,0.3143033 1.337136,0.9592158 1.623863,1.6690801 0.214487,0.5310159 0.213224,0.515504 0.236723,2.908324 0.01865,1.8996307 0.01398,2.2220684 -0.03182,2.1940842 C 15.524158,9.4413923 15.404808,9.3491962 15.288462,9.254555 15.0441,9.0557804 14.566066,8.8216231 14.225902,8.7340762 13.954197,8.6641488 13.376796,8.5977885 13.031638,8.5968204 12.81975,8.5962258 12.78533,8.6072331 12.713494,8.6985569 c -0.103636,0.1317523 -0.132022,0.2495846 -0.100545,0.4173716 0.03777,0.2013134 0.150874,0.2529919 0.686834,0.3138103 1.109155,0.1258624 1.684049,0.4434404 1.989063,1.0987792 0.270317,0.580792 0.305431,1.032362 0.306516,3.941903 l 7.92e-4,2.124267 -0.105769,0.02398 c -0.645469,0.146336 -0.838375,0.22964 -1.385217,0.59819 -0.65766,0.443236 -0.827105,0.485654 -1.6759,0.419535 -0.619855,-0.04829 -0.67765,-0.037 -0.775024,0.151299 -0.07314,0.141431 -0.07388,0.281758 -0.0022,0.420339 0.102426,0.198069 0.416015,0.270519 1.176426,0.271798 0.816624,0.0014 0.995577,-0.05532 1.723527,-0.546049 0.405395,-0.273284 0.694942,-0.421443 0.919169,-0.470331 l 0.125,-0.02725 v 2.554944 2.554945 l -0.932692,0.02606 c -1.458581,0.04075 -1.893994,-0.02877 -2.368704,-0.378236 -0.305051,-0.224566 -0.539691,-0.540848 -0.791858,-1.067378 -0.21689,-0.452873 -0.290277,-0.530376 -0.502206,-0.530376 -0.273209,0 -0.429462,0.199251 -0.389642,0.496866 0.03256,0.243363 0.404052,0.970496 0.649727,1.271735 0.259312,0.31796 0.580099,0.576067 0.927135,0.745976 0.517789,0.25351 0.593789,0.263884 2.071701,0.282806 l 1.336539,0.01711 -0.0025,1.698522 c -0.0014,0.934187 -0.0164,2.001407 -0.03341,2.371599 -0.02835,0.616988 -0.0409,0.699936 -0.15051,0.995395 -0.304785,0.82152 -0.850077,1.418869 -1.640527,1.79714 l -0.346154,0.165653 -0.02272,-1.104094 c -0.01855,-0.901499 -0.03511,-1.14291 -0.09024,-1.315632 -0.174992,-0.548202 -0.573681,-1.101725 -1.246144,-1.730094 -0.586595,-0.548132 -0.788616,-0.692983 -0.966491,-0.692983 -0.253021,0 -0.465167,0.255421 -0.406451,0.489363 0.01702,0.06781 0.248291,0.320182 0.639307,0.697637 0.99914,0.964489 1.170225,1.224121 1.227881,1.863387 0.03986,0.441977 0.05032,1.795668 0.01459,1.888775 -0.02813,0.07331 -0.155201,0.07379 -0.551527,0.0021 z" id="path2-12"></path><path style="fill:#808080;stroke:#000000;stroke-width:0.0384615" d="m 19.131715,30.598945 c -0.454119,-0.06286 -0.893191,-0.229089 -1.312763,-0.497015 l -0.21951,-0.140173 0.882972,-0.888129 0.882971,-0.88813 v -0.174043 c 0,-0.243517 -0.133323,-0.37684 -0.37684,-0.37684 h -0.174043 l -0.88813,0.882972 -0.888129,0.882971 -0.140173,-0.21951 c -0.471716,-0.738707 -0.626923,-1.578391 -0.492194,-2.662826 0.101325,-0.815574 0.404677,-1.038939 1.513865,-1.114694 0.297989,-0.02035 0.699533,-0.03726 0.892322,-0.03757 0.327073,-5.32e-4 0.357308,-0.0074 0.451923,-0.101969 0.142321,-0.142321 0.142321,-0.385651 0,-0.527972 -0.10118,-0.101181 -0.102734,-0.101399 -0.722163,-0.101399 -0.956805,0 -1.531081,0.08962 -1.955285,0.305145 l -0.221153,0.11236 v -3.84031 -3.840306 L 16.625,17.347614 c 1.10419,-0.101623 1.493667,-0.218996 2.105769,-0.634596 0.295053,-0.200333 0.608001,-0.29693 1.072409,-0.33102 0.323609,-0.02375 0.381994,-0.0392 0.46608,-0.123283 0.136967,-0.136968 0.134486,-0.382943 -0.0053,-0.522701 -0.09296,-0.09296 -0.127378,-0.101374 -0.413462,-0.101108 -0.641713,5.97e-4 -1.00547,0.106322 -1.544733,0.448973 -0.521329,0.331256 -0.879215,0.443203 -1.587928,0.496703 l -0.352478,0.02661 V 12.50062 8.3940492 l 0.163461,0.1504554 c 0.555978,0.5117392 1.237891,0.7691212 2.144231,0.8093192 l 0.480769,0.021323 0.105769,-0.1062796 c 0.14376,-0.144426 0.148631,-0.3886214 0.01053,-0.5267184 -0.08623,-0.086227 -0.1437,-0.099334 -0.605866,-0.1381715 C 18.159478,8.5615592 17.756299,8.4668538 17.478105,8.3253542 17.03946,8.1022435 16.7031,7.6869665 16.53818,7.1649027 16.345354,6.5545023 16.317404,5.3698589 16.480745,4.7305515 16.757196,3.6485302 17.636398,2.768186 18.730769,2.4776029 c 0.4361,-0.1157955 1.108424,-0.1156117 1.557693,4.257e-4 1.089019,0.2812729 1.97925,1.1062841 2.212939,2.0508176 l 0.02617,0.1057692 h -1.34508 -1.345078 L 19.736014,4.736014 c -0.142321,0.1423206 -0.142321,0.3856514 0,0.527972 l 0.101399,0.1013986 h 1.515833 1.515834 l 0.215327,0.1377429 c 0.38398,0.2456291 0.785798,0.703446 1.066787,1.2154587 0.3307,0.6025938 0.524185,1.507753 0.444249,2.0782753 l -0.03924,0.2800616 -0.278101,0.2460934 c -0.927676,0.8209065 -1.428835,1.4932465 -1.576537,2.1150355 l -0.04669,0.196563 h -1.40873 -1.40873 l -0.101399,0.101399 c -0.142321,0.142321 -0.142321,0.385651 0,0.527972 l 0.101399,0.101399 h 1.398601 1.398601 v 1.398601 1.398601 l 0.101399,0.101399 c 0.141291,0.141291 0.385686,0.142286 0.525832,0.0021 l 0.09926,-0.09926 0.01211,-1.73728 c 0.01186,-1.700802 0.01394,-1.741813 0.0991,-1.953214 0.165459,-0.410705 0.530945,-0.869092 1.101636,-1.381653 l 0.381649,-0.342775 0.137582,0.083152 c 0.275432,0.166465 0.594666,0.439727 0.799231,0.684135 0.246411,0.294404 0.554628,0.907579 0.647653,1.288461 0.08543,0.349776 0.08706,0.989461 0.0034,1.338925 -0.03449,0.1441 -0.06271,0.286801 -0.06271,0.317111 0,0.03067 0.139034,0.123765 0.313493,0.209915 0.926627,0.457579 1.522051,1.186812 1.748867,2.14189 0.08556,0.360275 0.08407,1.030719 -0.0031,1.376774 -0.09464,0.375908 -0.333509,0.87251 -0.568105,1.181091 l -0.198587,0.261216 h -1.467984 -1.467984 l -0.101399,0.101399 c -0.142112,0.142111 -0.142313,0.385659 -4.37e-4,0.527535 l 0.100961,0.100962 1.520484,0.01005 1.520483,0.01005 0.08838,0.262039 c 0.291735,0.86493 0.145573,1.792592 -0.410183,2.603345 -0.190331,0.277661 -0.575094,0.64848 -0.864298,0.832977 -0.244756,0.156142 -0.549193,0.30508 -0.569901,0.27881 -0.0068,-0.0086 -0.07484,-0.128132 -0.151241,-0.265633 -0.380756,-0.685221 -0.984169,-1.152974 -1.735129,-1.345037 -0.4298,-0.109924 -1.153605,-0.164743 -1.792829,-0.135784 -1.122789,0.05087 -1.655755,-0.107014 -1.882461,-0.557641 -0.09846,-0.1957 -0.147543,-0.431651 -0.17804,-0.855796 -0.02367,-0.329245 -0.0387,-0.386761 -0.123092,-0.471154 -0.136968,-0.136967 -0.382943,-0.134486 -0.522701,0.0053 -0.09438,0.09438 -0.101399,0.125121 -0.101399,0.443929 0,0.912534 0.328205,1.596044 0.917095,1.909919 0.423425,0.225683 0.561929,0.24547 1.929059,0.275585 1.098284,0.02419 1.286527,0.03743 1.550943,0.109049 0.548247,0.148501 0.895058,0.395147 1.199462,0.853036 0.300501,0.452018 0.376156,0.683218 0.377371,1.153237 0.0022,0.855023 -0.322307,1.618662 -0.941657,2.215862 -0.297078,0.286455 -0.528403,0.444744 -0.89094,0.609646 -0.418048,0.190151 -0.449025,0.192946 -0.449025,0.04052 0,-0.347097 -0.197148,-1.071965 -0.402914,-1.481417 -0.121464,-0.241701 -0.42236,-0.660835 -0.587288,-0.818066 -0.290534,-0.276973 -0.699012,-0.156451 -0.70125,0.206905 -7.1e-4,0.115168 0.0422,0.190581 0.251646,0.442308 0.419591,0.504284 0.641681,1.068016 0.695233,1.76471 0.05825,0.75781 -0.294505,1.635528 -0.901114,2.242138 -0.286388,0.286387 -0.508231,0.43909 -0.90534,0.62318 -0.517435,0.23987 -1.137243,0.342551 -1.644181,0.272385 z" id="path3-6"></path></g></g><g id="g3"></g><g id="layer2"></g></svg> 