<?xml version="1.0" encoding="UTF-8" standalone="no"?> <svg xmlns:inkscape="http://www.inkscape.org/namespaces/inkscape" xmlns:sodipodi="http://sodipodi.sourceforge.net/DTD/sodipodi-0.dtd" xmlns="http://www.w3.org/2000/svg" xmlns:svg="http://www.w3.org/2000/svg" height="64" width="64" version="1.1" id="_x32_" viewBox="0 0 40.96 40.96" xml:space="preserve"><defs id="defs1"> </defs> <style type="text/css" id="style1"> .st0{fill:#000000;} </style> <path class="st0" d="M 38.822936,7.7348 36.81402,7.64864 C 31.365782,7.41208 26.643033,5.77744 23.854788,3.16072 L 20.479949,0 17.10429,3.16072 C 14.316148,5.77744 9.5923759,7.41208 4.1450583,7.64864 L -4.0919e-7,7.82784 v 14.96752 c 0,2.1288 0.82487660919,4.13584 2.13696160919,5.97136 4.5302195,6.3872 14.8391808,10.75968 16.3062308,11.3616 L 20.479949,40.96 22.515886,40.12832 C 24.40474,39.35408 40.96,32.3152 40.96,22.79536 V 7.82784 Z M 4.3834424,20.88848 c 0,-3.70608 0,-9.81392 0,-9.81392 6.5847856,-0.28632 12.4370186,-2.28624 16.0966086,-5.72 v 15.53392 h 16.094971 v 1.90688 c 0,7.72008 -16.094971,14.29344 -16.094971,14.29344 V 20.88848 Z" id="path1" style="fill:#000000;fill-opacity:1;stroke-width:0.0904896"></path><rect style="fill:#cc3333;fill-opacity:0.803922;stroke-width:0.64" id="rect2" x="3.8023288" y="-9.0129271" rx="41.599998" ry="40.959999" width="0" height="0"></rect></svg> 