<?xml version="1.0" encoding="UTF-8" standalone="no"?> <svg xmlns:inkscape="http://www.inkscape.org/namespaces/inkscape" xmlns:sodipodi="http://sodipodi.sourceforge.net/DTD/sodipodi-0.dtd" xmlns="http://www.w3.org/2000/svg" xmlns:svg="http://www.w3.org/2000/svg" fill="#000000" version="1.1" id="Capa_1" width="64" height="64" viewBox="0 0 7.296 7.296" xml:space="preserve"><defs id="defs5"> </defs> <g id="layer6"><rect style="fill:#3060bf;fill-opacity:1;stroke:#3060bf;stroke-width:0.112547;stroke-opacity:1" id="rect1" width="7.4114528" height="7.4114532" x="-0.057726499" y="-0.057726499" rx="0.0077030058" ry="0.16063854"></rect></g><g id="layer5" style="display:inline"><path d="m 6.736,3.088 c -0.28192,0 -0.5148,0.20872 -0.55368,0.48 H 4.72752 C 4.70768,3.32744 4.60904,3.10376 4.44424,2.92608 L 4.45,2.93184 5.56632,1.81552 5.50632,1.75552 4.39024,2.8716 C 4.21176,2.70408 3.986,2.6036 3.74312,2.58352 V 1.11392 H 3.74144 C 4.01352,1.07576 4.22312,0.84264 4.22312,0.56 4.22312,0.25072 3.9724,0 3.66312,0 c -0.3092,0 -0.56,0.25072 -0.56,0.56 0,0.28264 0.20968,0.51576 0.48176,0.55392 H 3.58312 V 2.58248 C 3.32048,2.59904 3.07592,2.70776 2.88872,2.89504 2.70656,3.0772 2.59824,3.31352 2.57728,3.568 H 1.12 v 0.08 0.08 H 2.57624 C 2.592,3.97912 2.69296,4.21296 2.86528,4.39648 L 1.76368,5.49816 C 1.68416,5.43024 1.58528,5.3916 1.47952,5.3916 c -0.11752,0 -0.228,0.04576 -0.31112,0.12888 -0.17152,0.1716 -0.17152,0.45064 0,0.62216 0.08312,0.08312 0.1936,0.12872 0.31112,0.12872 0.1176,0 0.22808,-0.04568 0.3112,-0.1288 C 1.87384,6.05944 1.9196,5.94896 1.9196,5.83136 1.9196,5.73088 1.8844,5.63656 1.82256,5.55912 L 2.92584,4.456 C 3.10776,4.62216 3.3372,4.71944 3.58312,4.7348 V 6.182 H 3.58488 C 3.3128,6.22024 3.10312,6.45336 3.10312,6.736 c 0,0.30928 0.2508,0.56 0.56,0.56 0.30928,0 0.56,-0.25072 0.56,-0.56 0,-0.28264 -0.2096,-0.51576 -0.48168,-0.554 H 3.74312 V 4.73392 C 3.97944,4.7144 4.19928,4.61864 4.37544,4.4592 l 1.10264,1.10264 0.06,-0.06 L 4.43632,4.4 C 4.6108,4.21576 4.71264,3.98064 4.7284,3.728 H 6.18232 C 6.2212,3.99936 6.454,4.208 6.736,4.208 c 0.30928,0 0.56,-0.25064 0.56,-0.56 0,-0.30928 -0.25072,-0.56 -0.56,-0.56 z M 4.6356,3.83896 C 4.62856,3.87808 4.61872,3.9164 4.6072,3.954 4.61888,3.91616 4.62856,3.87784 4.6356,3.83896 Z M 1.73416,6.08608 c -0.068,0.068 -0.1584,0.10544 -0.25464,0.10544 -0.09624,0 -0.18656,-0.03752 -0.25456,-0.10536 -0.14032,-0.14032 -0.14032,-0.3688 0,-0.50912 0.068,-0.068 0.15832,-0.10544 0.25456,-0.10544 0.09624,0 0.18664,0.03752 0.25464,0.10544 0.06808,0.068 0.10544,0.1584 0.10544,0.25456 0,0.09624 -0.03744,0.18656 -0.10544,0.25448 z M 3.62048,4.33768 C 3.7916,4.34552 3.95984,4.28904 4.09024,4.17912 3.95992,4.28896 3.79272,4.34576 3.62048,4.33768 Z M 4.07672,4.08296 C 3.96352,4.19608 3.81288,4.2584 3.6524,4.2584 3.49192,4.2584 3.3412,4.19608 3.22816,4.08296 3.11504,3.96984 3.05272,3.8192 3.05272,3.65872 3.05272,3.49832 3.11496,3.3476 3.22808,3.23448 3.3412,3.12136 3.49192,3.05912 3.6524,3.05912 c 0.16048,0 0.3112,0.06232 0.42432,0.17536 0.23392,0.23384 0.23392,0.61448 0,0.84848 z M 4.64632,3.568 v 0 C 4.63232,3.414 4.5844,3.26256 4.49944,3.1272 4.5828,3.2596 4.63216,3.41 4.64632,3.568 Z M 4.56112,4.07592 C 4.54344,4.11424 4.52352,4.15136 4.50112,4.18736 4.5236,4.15128 4.5436,4.11408 4.56112,4.07592 Z M 4.60592,3.95928 C 4.59384,3.9976 4.5792,4.03528 4.56256,4.07184 4.57928,4.03504 4.59392,3.99752 4.60592,3.95928 Z" id="path1" style="stroke-width:0.08;stroke:#0a0b26;stroke-opacity:1"></path><circle cx="0.56" cy="3.6479998" r="0.56" id="circle1" style="stroke-width:0.08"></circle><path d="m 5.84672,1.9044 c 0.11752,0 0.228,-0.04576 0.31112,-0.1288 0.17168,-0.1716 0.17168,-0.45072 0,-0.62224 -0.08312,-0.08312 -0.1936,-0.12888 -0.3112,-0.12888 -0.11752,0 -0.22808,0.04576 -0.3112,0.12888 -0.08304,0.08312 -0.1288,0.1936 -0.1288,0.31112 0,0.11744 0.04576,0.22792 0.1288,0.31112 0.08312,0.08304 0.19368,0.1288 0.31128,0.1288 z M 5.592,1.20984 C 5.66008,1.14184 5.75032,1.1044 5.84664,1.1044 c 0.09632,0 0.18664,0.03744 0.25464,0.10544 0.14032,0.14032 0.14032,0.36872 0,0.50912 -0.068,0.068 -0.15832,0.10536 -0.25456,0.10536 C 5.75048,1.82432 5.66008,1.78688 5.592,1.71896 5.524,1.65088 5.48664,1.56048 5.48664,1.4644 5.48664,1.36832 5.52408,1.27792 5.592,1.20984 Z" id="path2" style="stroke-width:0.08;fill:#1d0b26;fill-opacity:1"></path><path d="m 5.84672,5.3916 c -0.1176,0 -0.22816,0.04576 -0.31128,0.12888 -0.08304,0.08304 -0.1288,0.1936 -0.1288,0.31112 0,0.11752 0.04576,0.22808 0.1288,0.3112 0.08312,0.08312 0.19368,0.1288 0.31128,0.1288 0.11768,0 0.22816,-0.04576 0.31112,-0.1288 0.1716,-0.17152 0.17168,-0.45072 0,-0.62224 C 6.07488,5.43736 5.9644,5.3916 5.84672,5.3916 Z M 6.10128,6.08616 C 6.03328,6.15424 5.94296,6.19152 5.84672,6.19152 5.75048,6.19152 5.66008,6.154 5.592,6.08616 5.524,6.01808 5.48664,5.92784 5.48664,5.83152 5.48664,5.7352 5.52408,5.64496 5.592,5.57688 5.66008,5.50888 5.75032,5.47152 5.84672,5.47152 c 0.09616,0 0.18656,0.03752 0.25456,0.10536 0.14032,0.14048 0.14032,0.36888 0,0.50928 z" id="path3" style="stroke-width:0.08"></path><path d="m 1.47952,1.9044 c 0.09384,0 0.18248,-0.03024 0.25696,-0.08424 l 1.11168,1.11168 0.06,-0.06 L 1.80024,1.76392 C 1.87672,1.68216 1.9196,1.5768 1.9196,1.46448 1.9196,1.34696 1.87384,1.2364 1.79072,1.15328 1.70768,1.07016 1.5972,1.02448 1.4796,1.02448 1.362,1.02448 1.25144,1.07024 1.1684,1.15328 1.08544,1.23624 1.03976,1.34672 1.03976,1.4644 c 0,0.11768 0.04568,0.22816 0.12864,0.31112 C 1.25144,1.85864 1.36192,1.9044 1.47952,1.9044 Z M 1.22496,1.20984 c 0.068,-0.068 0.15832,-0.10536 0.25464,-0.10536 0.09616,0 0.18656,0.03744 0.25456,0.10536 0.06808,0.068 0.10544,0.1584 0.10544,0.25464 0,0.09608 -0.03752,0.18648 -0.10544,0.25456 C 1.66616,1.78704 1.57584,1.8244 1.47952,1.8244 1.38336,1.8244 1.29296,1.78696 1.22496,1.71904 1.15704,1.6512 1.11976,1.56072 1.11976,1.46448 c 0,-0.09624 0.03736,-0.18672 0.1052,-0.25464 z" id="path4" style="stroke-width:0.08;fill:#0a0b26;fill-opacity:1"></path><path style="fill:none;fill-opacity:1;stroke:#0a0b26;stroke-width:0.0913978;stroke-opacity:1" d="m 30.68879,63.352865 c -1.185845,-0.404139 -2.052162,-1.171892 -2.594304,-2.299143 -0.716377,-1.489531 -0.610909,-3.108664 0.291722,-4.478492 0.587212,-0.891149 1.501348,-1.546989 2.553065,-1.831675 0.458397,-0.124082 0.592964,-0.198913 0.592964,-0.329738 0,-0.09308 0.06169,-0.16923 0.137096,-0.16923 0.120584,0 0.137097,-0.786229 0.137097,-6.527668 v -6.527666 l -0.616935,-0.06396 c -3.133779,-0.324894 -5.919524,-2.236923 -7.264252,-4.985905 -0.53711,-1.097999 -0.739709,-1.829919 -0.940062,-3.39613 l -0.05554,-0.434139 h -6.346546 -6.346546 v -0.319893 -0.319892 h 6.350405 6.350405 l 0.03933,-0.205645 c 0.02163,-0.113105 0.08245,-0.514112 0.135138,-0.891128 0.320614,-2.29399 1.773787,-4.593485 3.750429,-5.934664 1.181863,-0.801911 2.729617,-1.394758 3.952722,-1.514041 0.319086,-0.03112 0.672696,-0.07553 0.785801,-0.09869 l 0.205645,-0.04211 v -6.624598 c 0,-5.8276 -0.01649,-6.6245987 -0.137097,-6.6245987 -0.0754,0 -0.137096,-0.078643 -0.137096,-0.1747617 0,-0.1322247 -0.08767,-0.1895734 -0.360174,-0.2356131 -0.95354,-0.1610994 -2.257457,-1.060103 -2.828674,-1.9502681 -1.925398,-3.0004716 0.225712,-6.95484315 3.78658,-6.96084657 3.324831,-0.005605 5.51731,3.48058727 4.061169,6.45753987 -0.561221,1.147368 -1.667865,2.0744164 -2.835283,2.3751507 -0.486777,0.1253964 -0.635447,0.201726 -0.635447,0.326247 0,0.089403 -0.06169,0.1625519 -0.137097,0.1625519 -0.120603,0 -0.137097,0.7969987 -0.137097,6.6245987 v 6.624598 l 0.205645,0.03848 c 0.113105,0.02116 0.525745,0.08655 0.916978,0.145303 1.57808,0.236982 3.120272,0.968809 4.460852,2.116837 0.363784,0.311533 0.539138,0.409275 0.608971,0.339442 0.149196,-0.149196 0.332953,-0.0026 0.199026,0.158731 -0.115172,0.138774 -0.106981,0.154134 0.507673,0.951998 0.174266,0.226209 0.317845,0.439811 0.319064,0.47467 0.0012,0.03486 -0.118087,0.134447 -0.265124,0.221304 l -0.267341,0.157922 0.34813,0.692675 c 0.391021,0.778012 0.688571,1.671973 0.780241,2.344155 0.103242,0.757031 0.107779,0.763891 0.466717,0.705643 0.27388,-0.04444 0.328483,-0.02339 0.372128,0.143512 l 0.05115,0.195599 h 6.700597 6.700598 l 0.106811,-0.525537 c 0.26951,-1.326071 1.266135,-2.621926 2.465287,-3.205474 3.381963,-1.645777 7.212619,1.427595 6.34851,5.093472 -0.573062,2.431148 -3.085749,3.964369 -5.476434,3.341675 -1.766024,-0.459992 -3.076514,-1.902094 -3.381961,-3.72161 l -0.05754,-0.342741 H 47.8482 41.140205 l -0.05059,0.38844 c -0.02782,0.213643 -0.06119,0.511828 -0.07415,0.662634 -0.02177,0.2533 -0.05048,0.274194 -0.376809,0.274194 h -0.353248 l -0.177109,0.678178 c -0.09741,0.372998 -0.344486,1.028866 -0.549058,1.457486 l -0.371948,0.779308 0.256032,0.204153 0.256033,0.204153 -0.257808,0.394811 c -0.141793,0.217147 -0.611857,0.746425 -1.044586,1.176175 -1.481881,1.471683 -3.328825,2.356307 -5.425216,2.598493 l -0.525538,0.06071 v 6.528366 c 0,5.742058 0.01651,6.528365 0.137097,6.528365 0.0754,0 0.137097,0.07402 0.137097,0.164485 0,0.125309 0.157824,0.210975 0.662634,0.359673 3.698426,1.089416 4.43894,6.0033 1.218373,8.084852 -1.132947,0.73226 -2.657965,0.926859 -3.912625,0.499268 z m 2.699058,-25.064143 c 0.756684,-0.165695 2.218787,-0.848372 2.532762,-1.182582 l 0.21338,-0.227133 -0.211233,-0.224847 -0.211232,-0.224847 0.468581,-0.512702 c 1.5485,-1.694305 1.926527,-4.258773 0.925266,-6.276827 -0.616803,-1.243172 -1.440715,-2.050123 -2.694105,-2.638635 -2.777381,-1.304084 -6.076083,-0.148499 -7.396359,2.591053 -0.223517,0.463794 -0.455719,1.101334 -0.516006,1.416755 -0.14584,0.763034 -0.06156,2.103654 0.180122,2.865192 0.251518,0.792528 0.942492,1.839215 1.602508,2.427478 0.826695,0.736822 2.332304,1.39996 3.178509,1.39996 0.236558,0 0.254991,0.02643 0.254991,0.365591 v 0.365591 h 0.507495 c 0.279122,0 0.803517,-0.06482 1.165321,-0.144047 z" id="path6" transform="scale(0.114)"></path></g></svg> 