<?xml version="1.0" encoding="UTF-8" standalone="no"?> <svg xmlns:inkscape="http://www.inkscape.org/namespaces/inkscape" xmlns:sodipodi="http://sodipodi.sourceforge.net/DTD/sodipodi-0.dtd" xmlns="http://www.w3.org/2000/svg" xmlns:svg="http://www.w3.org/2000/svg" version="1.1" id="Layer_1" x="0px" y="0px" width="64" height="64" viewBox="0 0 64 64" xml:space="preserve"><defs id="defs7"></defs> <g id="g1" transform="matrix(1.0666667,0,0,1.0666667,-2.4587093,-2.2564171)"><rect style="fill:#ffffff;fill-opacity:1;stroke-width:0.63636" id="rect2" width="42" height="42" x="11" y="11.000003"></rect><path fill="#cc0000" d="m 31.992325,21.71946 c -5.6758,0 -10.27464,4.58876 -10.27464,10.28311 0,5.67557 4.59868,10.27798 10.27464,10.27798 5.68122,0 10.28999,-4.60257 10.28999,-10.27798 0,-5.6942 -4.60877,-10.28311 -10.28999,-10.28311" id="path2" style="fill:#ff0000;fill-opacity:1;stroke-width:0.155065"></path><path fill="#cc0000" d="m 32.290929,52.12524 c -11.04538,0 -20.0091,-8.95156 -20.0091,-20.00139 0,-11.06985 8.96372,-20.0149 20.0091,-20.0149 11.05499,0 20.00754,8.94505 20.00754,20.0149 0,11.04983 -8.95255,20.00139 -20.00754,20.00139 m 0,-50.00985 c -16.55838,0 -29.98589,13.43408 -29.98589,30.00846 0,16.56165 13.42751,29.99154 29.98589,29.99154 16.5655,0 30.01411,-13.42989 30.01411,-29.99154 0,-16.57438 -13.44861,-30.00846 -30.01411,-30.00846 z" id="path1" style="fill:#000000;fill-opacity:1;stroke-width:0.155065"></path></g></svg> 