<?xml version="1.0" encoding="UTF-8" standalone="yes"?> <svg xmlns="http://www.w3.org/2000/svg" id="Layer_1" data-name="Layer 1" width="124.14" height="51.35" viewBox="0 0 124.14 51.35">               <path d="M24.14,44.85l-1.73-3.07c-1.51,.97-2.99,1.69-4.43,2.18s-2.84,.74-4.21,.74c-2.05,0-3.94-.51-5.69-1.53-1.75-1.02-3.24-2.47-4.46-4.35-1.23-1.9-2.14-4-2.73-6.3-.59-2.3-.89-4.87-.89-7.7,0-6.12,1.26-11.01,3.79-14.66,2.53-3.65,5.94-5.48,10.22-5.48,3.57,0,6.43,1.41,8.57,4.23,2.14,2.82,3.21,6.54,3.21,11.17s-.81,7.97-2.42,10.38c-1.61,2.41-4.1,3.88-7.46,4.42l.79-5.57c-.66,1.81-1.38,3.18-2.16,4.09-.77,.92-1.6,1.37-2.49,1.37-1.29,0-2.34-.87-3.14-2.62s-1.21-4.04-1.21-6.89c0-3.03,.41-5.53,1.24-7.5,.82-1.97,1.85-2.96,3.09-2.96,.98,0,1.84,.42,2.6,1.27,.76,.85,1.45,2.18,2.07,3.99l-.62-5.27,4.3,.7-1.44,1.17,.37,13.75c1-.78,1.75-1.93,2.22-3.46,.48-1.52,.72-3.51,.72-5.95,0-3.56-.69-6.26-2.07-8.11-1.38-1.85-3.4-2.77-6.06-2.77s-4.83,1.26-6.32,3.78c-1.49,2.52-2.23,6.08-2.23,10.69,0,5.01,.76,8.9,2.29,11.68,1.52,2.78,3.66,4.17,6.41,4.17,1.34,0,2.74-.42,4.21-1.25,1.47-.83,2.97-2.05,4.51-3.67l1.16,9.31ZM13.78,20.32c-.13,.22-.23,.47-.29,.75-.06,.28-.1,.61-.1,.97,0,.87,.15,1.58,.44,2.13,.29,.56,.66,.84,1.11,.84,.17,0,.32-.05,.45-.15,.13-.1,.26-.25,.38-.45-.22-1-.49-1.83-.82-2.5-.32-.67-.71-1.2-1.17-1.6Z" fill="#c33"></path>               <g>                 <g>                   <path d="M57.43,10.43l-2.42,2.31,.98,8.51c-1.81,1.34-3.69,2.34-5.63,3-1.94,.66-3.98,.99-6.11,.99-1.73,0-3.42-.25-5.04-.75-1.63-.5-3.12-1.23-4.48-2.19-1.79-1.28-3.17-2.8-4.14-4.57-.97-1.77-1.46-3.66-1.46-5.66,0-1.87,.43-3.57,1.3-5.12,.87-1.54,2.12-2.85,3.76-3.9,1.53-.99,3.22-1.74,5.08-2.23,1.86-.5,3.89-.74,6.08-.74,1.63,0,3.17,.19,4.62,.58,1.46,.39,2.78,.95,3.97,1.69l.8-2.21,1.28,8.89c-1.41-1.68-2.83-2.92-4.28-3.71-1.45-.79-2.99-1.19-4.64-1.19-2.23,0-4.02,.74-5.38,2.21s-2.04,3.43-2.04,5.86c0,2.16,.63,3.92,1.88,5.26s2.89,2.02,4.89,2.02c.04,0,.18,0,.41-.02,.23-.02,.43-.03,.59-.04l1.44-4.76-3.45,.39-1.06,2.01-.44-10.02,1.69,2.34,11.8,1.05Z"></path>                   <path d="M78.84,24.88l-1.47-2.72c-1.45,.92-2.9,1.6-4.35,2.05-1.45,.45-2.95,.67-4.5,.67-3.02,0-5.44-.75-7.26-2.25s-2.73-3.49-2.73-5.97c0-1.31,.25-2.57,.75-3.79,.5-1.22,1.2-2.28,2.1-3.18,.87-.87,1.89-1.53,3.04-1.98,1.15-.45,2.42-.67,3.81-.67,2.65,0,4.84,.57,6.56,1.72,1.72,1.15,2.59,2.59,2.59,4.32s-.79,3.21-2.38,4.39c-1.59,1.18-3.58,1.77-5.97,1.77-.59,0-1.14-.05-1.65-.14-.51-.09-1-.23-1.47-.42,1.03,.7,2.03,1.21,3.02,1.55,.99,.33,2,.5,3.05,.5,1.28,0,2.45-.28,3.52-.85,1.07-.57,1.98-1.39,2.75-2.47l.61,7.48Zm-16.29-11.67c.35,.28,.76,.5,1.23,.66,.47,.16,.95,.24,1.44,.24,.86,0,1.57-.25,2.11-.75,.54-.5,.82-1.15,.82-1.93,0-.38-.05-.73-.16-1.03s-.28-.59-.51-.87c-1.17,.17-2.16,.57-2.99,1.19-.82,.62-1.47,1.45-1.94,2.5Z"></path>                   <path d="M100.02,24.88l-1.47-2.72c-1.45,.92-2.9,1.6-4.35,2.05-1.45,.45-2.95,.67-4.5,.67-3.02,0-5.44-.75-7.26-2.25-1.82-1.5-2.73-3.49-2.73-5.97,0-1.31,.25-2.57,.75-3.79,.5-1.22,1.2-2.28,2.1-3.18,.87-.87,1.88-1.53,3.04-1.98,1.15-.45,2.42-.67,3.81-.67,2.65,0,4.84,.57,6.56,1.72,1.72,1.15,2.59,2.59,2.59,4.32s-.79,3.21-2.38,4.39c-1.59,1.18-3.58,1.77-5.97,1.77-.59,0-1.14-.05-1.65-.14s-1-.23-1.47-.42c1.03,.7,2.03,1.21,3.02,1.55s2,.5,3.05,.5c1.28,0,2.45-.28,3.52-.85,1.07-.57,1.99-1.39,2.75-2.47l.61,7.48Zm-16.29-11.67c.35,.28,.76,.5,1.23,.66,.47,.16,.95,.24,1.44,.24,.86,0,1.57-.25,2.11-.75,.54-.5,.82-1.15,.82-1.93,0-.38-.05-.73-.16-1.03s-.28-.59-.51-.87c-1.17,.17-2.16,.57-2.99,1.19-.82,.62-1.47,1.45-1.94,2.5Z"></path>                   <path d="M123.85,22.2l-8.69,3.45,1.31-3.13-8.04-6.47,2.24,7.27,1.8,1.02-12.26,.64,2.47-2.42-.49-20.31-1.72-1.31,13.11-.93-2.62,1.88-2.21,11.9,4.99-5.6-1-2.01,9.92,.7-8.22,5.5,9.4,9.82Z"></path>                 </g>                 <g>                   <path d="M36.24,36.05h2.96l-6.59,15.3h-2.93l2.01-4.68-4.31-10.62h3.11l1.64,4.66,1.03,3.04,1.12-2.98,1.97-4.73Z"></path>                   <path d="M41.63,37.45c1.02-1.08,2.37-1.62,4.05-1.62s3.04,.54,4.08,1.62c1.04,1.08,1.56,2.42,1.56,4.01s-.51,2.94-1.53,4.02c-1.02,1.07-2.39,1.61-4.09,1.61s-3.07-.54-4.08-1.61c-1.01-1.07-1.52-2.41-1.52-4.02s.51-2.93,1.53-4.01Zm4.07,.81c-.92,0-1.64,.31-2.16,.94-.52,.63-.78,1.38-.78,2.25s.26,1.62,.78,2.24c.52,.62,1.24,.93,2.16,.93s1.64-.31,2.16-.93c.52-.62,.78-1.37,.78-2.24s-.27-1.59-.82-2.23c-.55-.64-1.25-.96-2.11-.96Z"></path>                   <path d="M53.23,36.05h2.67v5.65c0,.85,.23,1.54,.68,2.08,.45,.54,1.09,.81,1.93,.81s1.46-.29,1.98-.88c.52-.58,.78-1.3,.78-2.15v-5.52h2.65v10.81h-2.39l-.18-1.47c-1.09,1.08-2.31,1.62-3.66,1.62s-2.4-.47-3.23-1.42c-.82-.95-1.24-2.24-1.24-3.87v-5.67Z"></path>                   <path d="M66.27,36.05h2.47l.2,1.25c.38-.61,.82-1.02,1.31-1.23,.5-.2,1.07-.31,1.73-.31,1.17,0,2.09,.34,2.78,1.03l-1.2,2.32c-.55-.47-1.2-.7-1.93-.7-.77,0-1.42,.22-1.93,.67-.51,.45-.77,1.13-.77,2.07v5.69h-2.67v-10.79Z"></path>                   <path d="M88.73,37.16l-1.49,1.75c-.69-.64-1.58-.96-2.67-.96-1.31,0-1.97,.36-1.97,1.07s.67,1.09,2.01,1.18c.48,.03,.91,.07,1.28,.13,.37,.06,.78,.16,1.21,.32,.44,.15,.8,.35,1.09,.59s.54,.57,.73,.97c.2,.41,.29,.89,.29,1.44,0,1.01-.4,1.85-1.21,2.53-.81,.68-1.95,1.02-3.42,1.02-.99,0-1.89-.13-2.69-.39-.8-.26-1.57-.77-2.3-1.53l1.31-1.9c.37,.41,.92,.76,1.66,1.05,.74,.29,1.43,.45,2.06,.46,.53,.02,.98-.1,1.37-.35,.39-.25,.58-.56,.58-.94s-.16-.63-.49-.81-.88-.28-1.65-.33c-.57-.04-1.09-.13-1.58-.25-.48-.12-.95-.31-1.41-.55-.46-.24-.82-.58-1.08-1.02-.26-.44-.39-.95-.39-1.53s.14-1.12,.43-1.58c.29-.45,.66-.8,1.12-1.05,.46-.25,.94-.43,1.46-.56s1.03-.19,1.55-.19c1.72,0,3.12,.47,4.2,1.42Z"></path>                   <path d="M93.61,51.35h-2.67v-15.3h2.5l.17,1.49c.39-.57,.91-1,1.55-1.29,.64-.29,1.29-.44,1.95-.44,1.63,0,2.97,.54,4,1.61,1.03,1.07,1.54,2.42,1.54,4.04s-.49,2.98-1.47,4.05c-.98,1.06-2.31,1.6-3.98,1.6-.69,0-1.37-.12-2.05-.36s-1.19-.63-1.54-1.17v5.78Zm1.11-7.72c.58,.59,1.31,.89,2.2,.89s1.62-.3,2.2-.89,.86-1.32,.86-2.18-.28-1.61-.83-2.19c-.55-.58-1.3-.88-2.23-.88s-1.68,.29-2.23,.88-.83,1.31-.83,2.19,.29,1.59,.86,2.18Z"></path>                   <path d="M105.65,37.45c1.02-1.08,2.37-1.62,4.05-1.62s3.04,.54,4.08,1.62c1.04,1.08,1.56,2.42,1.56,4.01s-.51,2.94-1.53,4.02c-1.02,1.07-2.39,1.61-4.09,1.61s-3.07-.54-4.08-1.61c-1.01-1.07-1.52-2.41-1.52-4.02s.51-2.93,1.53-4.01Zm4.07,.81c-.92,0-1.64,.31-2.16,.94-.52,.63-.78,1.38-.78,2.25s.26,1.62,.78,2.24c.52,.62,1.24,.93,2.16,.93s1.64-.31,2.16-.93c.52-.62,.78-1.37,.78-2.24s-.27-1.59-.82-2.23c-.55-.64-1.25-.96-2.11-.96Z"></path>                   <path d="M118.06,33.29l2.67-.28v3.06h2.98v2.3h-3v4.66c0,.5,.13,.88,.38,1.14,.26,.26,.59,.39,1.02,.39s.85-.11,1.29-.33l.74,2.28c-.71,.29-1.45,.44-2.21,.46-1.2,.04-2.14-.27-2.83-.95-.69-.68-1.04-1.67-1.04-2.99v-4.66h-2.01v-2.3h2.01v-2.78Z"></path>                 </g>                 <line x1="120.63" y1="29.13" x2="31.86" y2="29.13" fill="none" stroke="#c33" stroke-miterlimit="10"></line>               </g>             </svg> 