<?xml version="1.0" encoding="UTF-8" standalone="no"?> <svg xmlns="http://www.w3.org/2000/svg" xmlns:svg="http://www.w3.org/2000/svg" version="1.1" id="Layer_1" x="0px" y="0px" width="64" height="64" viewBox="0 0 64 64" xml:space="preserve"><defs id="defs7"></defs> <g id="g2" transform="translate(15.971963,-129.17056)"><rect style="display:inline;fill:#db4437;fill-opacity:1;stroke-width:0.625533" id="rect1-0" width="64" height="64" x="-15.971963" y="129.17056"></rect><rect style="fill:#ffffff;fill-opacity:1;stroke-width:0.63636" id="rect2" width="42" height="42" x="-4.9719629" y="140.17056"></rect><path fill="#cc0000" d="m 16.020362,150.89002 c -5.6758,0 -10.2746399,4.58876 -10.2746399,10.28311 0,5.67557 4.5986799,10.27798 10.2746399,10.27798 5.68122,0 10.28999,-4.60257 10.28999,-10.27798 0,-5.6942 -4.60877,-10.28311 -10.28999,-10.28311" id="path2" style="fill:#ff0000;fill-opacity:1;stroke-width:0.155065"></path><path fill="#cc0000" d="m 16.318966,181.2958 c -11.0453798,0 -20.0090998,-8.95156 -20.0090998,-20.00139 0,-11.06985 8.96372,-20.0149 20.0090998,-20.0149 11.05499,0 20.00754,8.94505 20.00754,20.0149 0,11.04983 -8.95255,20.00139 -20.00754,20.00139 m 0,-50.00985 c -16.55837983,0 -29.98589,13.43408 -29.98589,30.00846 0,16.56165 13.42751017,29.99154 29.98589,29.99154 16.5655,0 30.01411,-13.42989 30.01411,-29.99154 0,-16.57438 -13.44861,-30.00846 -30.01411,-30.00846 z" id="path1" style="fill:#000000;fill-opacity:1;stroke-width:0.155065"></path></g></svg> 