<?xml version="1.0" encoding="UTF-8" standalone="no"?>
<svg
   height="22"
   viewBox="0 -960 800 880"
   width="20"
   fill="#e3e3e3"
   version="1.1"
   id="svg1"
   sodipodi:docname="footprint.svg"
   inkscape:version="1.4.2 (ebf0e940, 2025-05-08)"
   xmlns:inkscape="http://www.inkscape.org/namespaces/inkscape"
   xmlns:sodipodi="http://sodipodi.sourceforge.net/DTD/sodipodi-0.dtd"
   xmlns="http://www.w3.org/2000/svg"
   xmlns:svg="http://www.w3.org/2000/svg">
  <defs
     id="defs1" />
  <sodipodi:namedview
     id="namedview1"
     pagecolor="#505050"
     bordercolor="#ffffff"
     borderopacity="1"
     inkscape:showpageshadow="0"
     inkscape:pageopacity="0"
     inkscape:pagecheckerboard="1"
     inkscape:deskcolor="#505050"
     inkscape:zoom="32.083333"
     inkscape:cx="12.015584"
     inkscape:cy="12"
     inkscape:window-width="1152"
     inkscape:window-height="919"
     inkscape:window-x="0"
     inkscape:window-y="30"
     inkscape:window-maximized="0"
     inkscape:current-layer="svg1">
    <inkscape:page
       x="0"
       y="0"
       width="800"
       height="880"
       id="page2"
       margin="0"
       bleed="0" />
  </sodipodi:namedview>
  <path
     d="m 180,-880 q -45,0 -72.5,50 -27.5,50 -27.5,110 0,63 17.5,111.5 17.5,48.5 32.5,72.5 l 110,-22 q 13,-32 26.5,-73 13.5,-41 13.5,-89 0,-60 -27.5,-110 -27.5,-50 -72.5,-50 z m 55,520 q 19,0 32,-14 13,-14 13,-39 0,-17 -8,-35 -8,-18 -16,-32 l -96,20 q 0,40 17.5,70 17.5,30 57.5,30 z m 385,-320 q -45,0 -72.5,50 -27.5,50 -27.5,110 0,48 13.5,88.5 13.5,40.5 26.5,73.5 l 110,22 q 15,-24 32.5,-72 17.5,-48 17.5,-112 0,-60 -27.5,-110 -27.5,-50 -72.5,-50 z m -55,520 q 40,0 57.5,-30 17.5,-30 17.5,-70 l -96,-20 q -8,14 -16,32 -8,18 -8,35 0,20 12.5,36.5 Q 545,-160 565,-160 Z M 235,-280 q -77,0 -117,-57 -40,-57 -38,-128 L 62,-492 Q 51,-509 25.5,-569 0,-629 0,-720 0,-823 51,-891.5 102,-960 180,-960 q 85,0 132.5,75.5 47.5,75.5 47.5,164.5 0,58 -16,107 -16,49 -28,79 l 8,13 q 8,14 22,44.5 14,30.5 14,63.5 0,57 -35.5,95 -35.5,38 -89.5,38 z m 330,200 q -54,0 -89.5,-38 -35.5,-38 -35.5,-95 0,-33 14,-63.5 14,-30.5 22,-44.5 l 8,-13 q -12,-30 -28,-79 -16,-49 -16,-107 0,-89 47.5,-164.5 Q 535,-760 620,-760 q 78,0 129,68.5 51,68.5 51,171.5 0,91 -25.5,150.5 Q 749,-310 738,-293 l -18,28 q 1,71 -38.5,128 Q 642,-80 565,-80 Z"
     id="path1"
     style="fill:#ffffff;fill-opacity:1;stroke-width:40;stroke-dasharray:none" />
</svg>
